<svg width="24" height="24" viewBox="0 0 24 24" fill="none" xmlns="http://www.w3.org/2000/svg">
<path fill-rule="evenodd" clip-rule="evenodd" d="M20.7273 0C22.5348 0 24 1.46525 24 3.27273V20.7273C24 22.5348 22.5348 24 20.7273 24H3.27273C1.46525 24 0 22.5348 0 20.7273V3.27273C0 1.46525 1.46525 0 3.27273 0H20.7273ZM20.7273 2.18182C21.3298 2.18182 21.8182 2.67024 21.8182 3.27273V20.7273C21.8182 21.3298 21.3298 21.8182 20.7273 21.8182H15.2727V14.1817H17.5377C18.0072 14.1817 18.424 13.8813 18.5726 13.4357L19.0559 11.9859C19.2325 11.4561 18.8381 10.909 18.2797 10.909H15.2727V8.72719C15.2727 8.18173 15.8182 7.63628 16.3636 7.63628H18.5455C19.148 7.63628 19.6364 7.14785 19.6364 6.54537V5.79701C19.6364 5.44463 19.4113 5.12869 19.0705 5.03877C17.6405 4.6614 16.3636 4.6614 16.3636 4.6614C13.6364 4.6614 12 6.54537 12 8.18173V10.909H9.81818C9.21569 10.909 8.72727 11.3974 8.72727 11.9999V13.0908C8.72727 13.6933 9.21568 14.1817 9.81818 14.1817H12V21.8182H3.27273C2.67024 21.8182 2.18182 21.3298 2.18182 20.7273V3.27273C2.18182 2.67024 2.67024 2.18182 3.27273 2.18182H20.7273Z" fill="white"/>
</svg>
