<svg width="60" height="60" viewBox="0 0 60 60" fill="none" xmlns="http://www.w3.org/2000/svg">
<path d="M30 26.25C32.0711 26.25 33.75 24.5711 33.75 22.5C33.75 20.4289 32.0711 18.75 30 18.75C27.9289 18.75 26.25 20.4289 26.25 22.5C26.25 24.5711 27.9289 26.25 30 26.25Z" stroke="#F4F4F4" stroke-width="2.5" stroke-linecap="round"/>
<path d="M39.2526 20.625C39.7498 19.7637 40.5688 19.1352 41.5296 18.8778C42.4901 18.6204 43.5138 18.7551 44.3751 19.2524C45.2363 19.7497 45.8648 20.5688 46.1223 21.5294C46.3798 22.4901 46.2451 23.5137 45.7476 24.375C45.2503 25.2363 44.4313 25.8648 43.4706 26.1223C42.5101 26.3798 41.4863 26.245 40.6251 25.7475C39.7638 25.2503 39.1353 24.4313 38.8778 23.4706C38.6203 22.5099 38.7551 21.4863 39.2526 20.625Z" stroke="#F4F4F4" stroke-width="2.5"/>
<path d="M14.2524 20.625C14.7497 19.7637 15.5688 19.1352 16.5294 18.8778C17.4901 18.6204 18.5137 18.7551 19.375 19.2524C20.2363 19.7497 20.8648 20.5688 21.1222 21.5294C21.3796 22.4901 21.2449 23.5137 20.7476 24.375C20.2503 25.2363 19.4313 25.8648 18.4706 26.1223C17.5099 26.3798 16.4863 26.245 15.625 25.7475C14.7637 25.2503 14.1352 24.4313 13.8778 23.4706C13.6204 22.5099 13.7551 21.4863 14.2524 20.625Z" stroke="#F4F4F4" stroke-width="2.5"/>
<path d="M35.2501 32.9635L34.5234 31.9465L33.1924 32.8973L34.4596 33.9317L35.2501 32.9635ZM48.7499 40H36.2501V42.5H48.7499V40ZM49.6941 39.072C49.7531 39.3178 49.6894 39.517 49.5424 39.6793C49.3819 39.856 49.1031 40 48.7499 40V42.5C50.7491 42.5 52.6774 40.7928 52.1254 38.4893L49.6941 39.072ZM41.2501 32.5C44.3151 32.5 46.2239 33.5218 47.4556 34.7795C48.7211 36.0715 49.3689 37.7148 49.6941 39.072L52.1254 38.4893C51.7409 36.8853 50.9386 34.763 49.2416 33.0303C47.5109 31.2628 44.9446 30 41.2501 30V32.5ZM35.9766 33.9805C37.1714 33.127 38.8501 32.5 41.2501 32.5V30C38.3861 30 36.1864 30.7585 34.5234 31.9465L35.9766 33.9805ZM34.4596 33.9317C36.0921 35.2647 36.8709 37.334 37.2279 39.0313L39.6744 38.517C39.2711 36.5995 38.3249 33.8603 36.0406 31.9953L34.4596 33.9317ZM37.2279 39.0313C37.2819 39.2888 37.2109 39.5025 37.0539 39.6735C36.8856 39.8568 36.6026 40 36.2501 40V42.5C38.2596 42.5 40.1539 40.7985 39.6744 38.517L37.2279 39.0313Z" fill="#F4F4F4"/>
<path d="M24.7499 32.9635L25.5403 33.9317L26.8076 32.8973L25.4766 31.9462L24.7499 32.9635ZM18.7499 32.5C21.1498 32.5 22.8285 33.127 24.0232 33.9805L25.4766 31.9462C23.8136 30.7582 21.6139 30 18.7499 30V32.5ZM10.3058 39.072C10.6311 37.7148 11.279 36.0715 12.5444 34.7795C13.776 33.5218 15.6849 32.5 18.7499 32.5V30C15.0554 30 12.4892 31.2628 10.7583 33.0303C9.06123 34.763 8.25905 36.8853 7.8746 38.4893L10.3058 39.072ZM11.25 40C10.8968 40 10.6181 39.856 10.4576 39.6793C10.3106 39.517 10.2468 39.3178 10.3058 39.072L7.8746 38.4893C7.32248 40.7928 9.25086 42.5 11.25 42.5V40ZM23.7498 40H11.25V42.5H23.7498V40ZM23.7498 40C23.3973 40 23.1142 39.8568 22.9459 39.6735C22.789 39.5025 22.718 39.2888 22.7721 39.0313L20.3256 38.517C19.8461 40.7985 21.7401 42.5 23.7498 42.5V40ZM22.7721 39.0313C23.1289 37.334 23.9078 35.2647 25.5403 33.9317L23.9593 31.9953C21.675 33.8603 20.7287 36.5995 20.3256 38.517L22.7721 39.0313Z" fill="#F4F4F4"/>
<path d="M30.0002 31.25C35.9107 31.25 37.8287 35.8127 38.4512 38.7742C38.7352 40.1252 37.631 41.25 36.2502 41.25H23.7502C22.3695 41.25 21.2652 40.1252 21.5492 38.7742C22.1717 35.8127 24.0897 31.25 30.0002 31.25Z" stroke="#F4F4F4" stroke-width="2.5" stroke-linecap="round"/>
<path d="M46.25 53.75H50C52.071 53.75 53.75 52.071 53.75 50V46.25" stroke="#F4F4F4" stroke-width="2.5" stroke-linecap="round"/>
<path d="M46.25 6.25H50C52.071 6.25 53.75 7.92893 53.75 10V13.75" stroke="#F4F4F4" stroke-width="2.5" stroke-linecap="round"/>
<path d="M13.75 53.75H10C7.92893 53.75 6.25 52.071 6.25 50V46.25" stroke="#F4F4F4" stroke-width="2.5" stroke-linecap="round"/>
<path d="M13.75 6.25H10C7.92893 6.25 6.25 7.92893 6.25 10V13.75" stroke="#F4F4F4" stroke-width="2.5" stroke-linecap="round"/>
</svg>
