<svg width="60" height="60" viewBox="0 0 60 60" fill="none" xmlns="http://www.w3.org/2000/svg">
<path d="M47.5199 19.68C47.3999 19.26 46.8593 19.14 46.4999 19.44L40.4399 25.5C39.9593 25.98 39.2399 25.98 38.7593 25.5L34.4993 21.24C34.0193 20.76 34.0193 20.04 34.4993 19.56L40.6193 13.44C40.9193 13.14 40.7993 12.6 40.3793 12.42C39.3599 12.18 38.2799 12 37.1999 12C30.8399 12 25.7399 17.52 26.4599 24C26.5799 25.02 26.8199 25.92 27.1799 26.82L13.1999 40.86C11.5799 42.48 11.5799 45.18 13.1999 46.8C14.0399 47.64 15.1199 48.06 16.1999 48.06C17.2799 48.06 18.3599 47.6406 19.1999 46.8L33.1799 32.82C34.0799 33.18 35.0405 33.42 35.9999 33.54C42.5399 34.26 47.9999 29.16 47.9999 22.8C47.9999 21.72 47.8199 20.64 47.5199 19.68Z" fill="#F4F4F4"/>
</svg>
