<svg width="61" height="61" viewBox="0 0 61 61" fill="none" xmlns="http://www.w3.org/2000/svg">
<g clip-path="url(#clip0_196_442)">
<path d="M25.2383 50.8035C25.2367 49.2912 25.7341 47.8206 26.6532 46.6196C27.5723 45.4187 28.8619 44.5544 30.3221 44.1608C31.7823 43.7672 33.3316 43.8662 34.7298 44.4426C36.128 45.0189 37.2971 46.0403 38.0558 47.3485C43.2808 45.0435 45.2383 41.426 45.2383 34.551V27.051C45.2383 17.071 39.6108 10.176 30.8633 10.176C22.1158 10.176 16.4883 17.0735 16.4883 27.051V35.801C16.4876 36.2981 16.2899 36.7746 15.9384 37.1261C15.5869 37.4776 15.1104 37.6754 14.6133 37.676H12.1133C10.291 37.674 8.54381 36.9494 7.255 35.6611C5.96619 34.3727 5.24093 32.6258 5.23828 30.8035L5.23828 28.3035C5.24027 26.4805 5.96515 24.7328 7.25396 23.4435C8.54277 22.1542 10.2903 21.4287 12.1133 21.426H13.3083C15.2008 12.4985 21.6783 6.42603 30.8633 6.42603C40.0483 6.42603 46.5233 12.4985 48.4158 21.426H49.6108C51.4333 21.4287 53.1805 22.1538 54.4692 23.4426C55.758 24.7313 56.4831 26.4785 56.4858 28.301V30.801C56.4838 32.6238 55.7588 34.3713 54.4699 35.6602C53.1811 36.9491 51.4335 37.674 49.6108 37.676H48.8383C48.7418 40.637 47.7484 43.4989 45.9894 45.8829C44.2305 48.2668 41.7891 50.0603 38.9883 51.026C38.9588 52.8494 38.2062 54.5863 36.896 55.8548C35.5858 57.1232 33.8254 57.8193 32.002 57.7898C30.1787 57.7603 28.4417 57.0076 27.1733 55.6975C25.9048 54.3873 25.2088 52.6269 25.2383 50.8035ZM28.9883 50.8035C28.9883 51.4216 29.1716 52.0258 29.5149 52.5397C29.8583 53.0536 30.3464 53.4541 30.9174 53.6907C31.4884 53.9272 32.1167 53.9891 32.7229 53.8685C33.3291 53.7479 33.886 53.4503 34.323 53.0132C34.76 52.5762 35.0577 52.0194 35.1782 51.4132C35.2988 50.807 35.2369 50.1787 35.0004 49.6076C34.7639 49.0366 34.3633 48.5486 33.8494 48.2052C33.3355 47.8618 32.7313 47.6785 32.1133 47.6785C31.2847 47.6792 30.4902 48.0086 29.9043 48.5945C29.3184 49.1805 28.9889 49.9749 28.9883 50.8035ZM48.9883 33.9285H49.6108C50.4398 33.9285 51.2349 33.5994 51.8214 33.0134C52.4078 32.4274 52.7376 31.6326 52.7383 30.8035V28.3035C52.7383 27.4745 52.4091 26.6794 51.8231 26.0929C51.2372 25.5065 50.4423 25.1767 49.6133 25.176H48.9883V33.9285ZM8.98828 28.3035V30.8035C8.9896 31.6317 9.31935 32.4255 9.90519 33.0109C10.491 33.5963 11.2851 33.9254 12.1133 33.926H12.7383V25.176H12.1133C11.2842 25.1767 10.4894 25.5065 9.90342 26.0929C9.31744 26.6794 8.98828 27.4745 8.98828 28.3035Z" fill="#F4F4F4"/>
</g>
<defs>
<clipPath id="clip0_196_442">
<rect width="60" height="60" fill="white" transform="translate(0.863281 0.801025)"/>
</clipPath>
</defs>
</svg>
